<svg width="16" height="16" viewBox="0 0 16 16" fill="none" xmlns="http://www.w3.org/2000/svg">
<path d="M9.33325 5.33333H2.66659C1.93125 5.33333 1.33325 5.93133 1.33325 6.66667V13.3333C1.33325 14.0687 1.93125 14.6667 2.66659 14.6667H9.33325C10.0686 14.6667 10.6666 14.0687 10.6666 13.3333V6.66667C10.6666 5.93133 10.0686 5.33333 9.33325 5.33333Z" fill="black"/>
<path d="M13.3333 1.33333H6.66659C6.31296 1.33333 5.97383 1.47381 5.72378 1.72386C5.47373 1.97391 5.33325 2.31304 5.33325 2.66667V4H10.6666C11.0202 4 11.3593 4.14048 11.6094 4.39052C11.8594 4.64057 11.9999 4.97971 11.9999 5.33333V10.6667H13.3333C13.6869 10.6667 14.026 10.5262 14.2761 10.2761C14.5261 10.0261 14.6666 9.68696 14.6666 9.33333V2.66667C14.6666 2.31304 14.5261 1.97391 14.2761 1.72386C14.026 1.47381 13.6869 1.33333 13.3333 1.33333Z" fill="black"/>
</svg>
